<?xml version="1.0" encoding="UTF-8"?><svg id="Layer_1" xmlns="http://www.w3.org/2000/svg" viewBox="0 0 149.36 105.08"><defs><style>.cls-1{fill:#fff;}.cls-2{fill:#8bc440;}</style></defs><path id="Path_873" class="cls-2" d="M75.52,13.73H20.01c-1.25,.07-2.33,.91-2.7,2.1-.31,.79,.07,1.68,.85,1.99,.21,.08,.43,.12,.65,.11l45.99,.1c.85-.04,1.56,.61,1.61,1.45,.01,.22-.03,.44-.11,.65-.37,1.19-1.45,2.03-2.7,2.1l-60.79,.1c-1.25,.07-2.33,.91-2.7,2.1-.31,.79,.07,1.68,.85,1.99,.21,.08,.43,.12,.65,.11l41.28,.1h4.62c.85-.04,1.56,.61,1.61,1.45,.01,.22-.03,.44-.11,.65-.37,1.19-1.45,2.03-2.7,2.1l-19.26,.1c-1.25,.07-2.33,.91-2.7,2.1-.31,.79,.07,1.68,.85,1.99,.21,.08,.43,.12,.65,.11l25.14,.1c.85-.04,1.56,.61,1.61,1.45,.01,.22-.03,.44-.11,.65-.37,1.19-1.45,2.03-2.7,2.1l-44.39,.1c-1.25,.07-2.33,.91-2.7,2.1-.31,.79,.07,1.68,.85,1.99,.21,.08,.43,.12,.65,.11H50.48c6.06-11.71,14.6-21.96,25.02-30.03"/><path id="Path_874" class="cls-1" d="M63.5,40.3c1.97-2.83,4.2-5.48,6.67-7.89l-2.88-6.1c-3.18,3.28-6.03,6.86-8.51,10.68l4.71,3.31Z"/><path id="Path_875" class="cls-1" d="M72.72,30.08c2.95-2.54,6.16-4.76,9.58-6.61l.08-9.11c-4.56,2.71-8.8,5.91-12.67,9.54l3,6.17Z"/><path id="Path_876" class="cls-1" d="M100.47,17.92c4.01-.33,8.05,.08,11.92,1.2l10.4-12.79c-5.8-1.23-11.77-1.36-17.62-.39l-4.7,11.98Z"/><path id="Path_877" class="cls-1" d="M85.61,21.84c3.55-1.62,7.3-2.79,11.14-3.46l4.49-11.7c-5.41,1.27-10.64,3.23-15.55,5.84l-.08,9.32Z"/><path id="Path_878" class="cls-1" d="M127.02,30.27c2.17,3.75,3.42,7.96,3.63,12.28l18.7-5c-.26-6.42-2.31-12.63-5.94-17.94l-16.39,10.65Z"/><path id="Path_879" class="cls-2" d="M105.41,27.11l3.23-3.83c-5.59-1.17-11.38-.92-16.86,.7-11.35,3.32-21.18,10.52-27.77,20.34,6.79-7.76,15.7-13.37,25.63-16.15,5.12-1.45,10.49-1.81,15.76-1.06"/><path id="Path_880" class="cls-2" d="M120.46,34.88c3.57,4.1,5.54,9.36,5.54,14.8,.21-1.38,.32-2.77,.33-4.17,.06-4.35-1.1-8.64-3.35-12.36l-2.52,1.73Z"/><path id="Path_881" class="cls-2" d="M146,0l-17.88,3.61,1.93,1.93-40.85,45.77L140.03,15.52l2.11,2.11,3.86-17.63Z"/><path id="Path_882" class="cls-1" d="M61.07,43.62l-4.56-3.36c-.65,1.11-1.24,2.23-1.81,3.36h6.37Z"/><path id="Path_883" class="cls-1" d="M144.01,62.11c3.08-6.2,4.9-12.95,5.34-19.87l-18.71,4.58c-.26,3.65-1.03,7.25-2.28,10.69,5.35,1.05,10.59,2.58,15.66,4.59"/><path id="Path_884" class="cls-2" d="M34.6,101.06l3.91-4.04c1.78,1.83,4.2,2.9,6.76,2.97,1.44,0,2.47-.63,2.47-1.63,0-.84-.59-1.28-3.66-2.47-3.47-1.31-5.69-2.82-5.69-6.04,0-4.35,3.94-7.45,9.29-7.45,3.3-.13,6.53,1.04,8.98,3.25l-3.76,4.19c-1.57-1.49-3.63-2.35-5.79-2.41-1.47,0-2.38,.69-2.38,1.56s.66,1.19,3.66,2.38c3.38,1.28,5.69,2.82,5.69,6.1,0,4.51-3.88,7.57-9.32,7.57-3.8,.16-7.49-1.29-10.17-4"/><path id="Path_885" class="cls-2" d="M61.01,82.79h7.16c3.57,0,5.91,.72,7.51,2.31,1.16,1.19,1.79,2.81,1.72,4.47,0,5.44-4.41,8.82-10.89,8.82h-3.6l-1.69,6.29h-6.1l5.88-21.9Zm5.44,10.89c3,0,4.72-1.34,4.72-3.41,0-.57-.22-1.13-.63-1.53-.72-.62-1.65-.93-2.6-.84h-2.25l-1.53,5.79h2.29Z"/><path id="Path_886" class="cls-2" d="M82.03,82.79h17.55l-1.41,5.16h-11.51l-.91,3.32h10.45l-1.28,4.79h-10.45l-.94,3.47h11.7l-1.38,5.16h-17.71l5.88-21.9Z"/><path id="Path_887" class="cls-2" d="M102.96,82.79h17.55l-1.41,5.16h-11.51l-.91,3.32h10.45l-1.28,4.79h-10.45l-.94,3.47h11.7l-1.38,5.16h-17.71l5.88-21.9Z"/><path id="Path_888" class="cls-2" d="M123.89,82.79h7.07c4.26,0,6.92,1.16,8.57,2.82,1.64,1.72,2.5,4.04,2.38,6.41,.02,3.25-1.28,6.36-3.6,8.64-2.63,2.63-6.41,4.04-11.48,4.04h-8.82l5.88-21.9Zm3.66,16.52c2.3,.1,4.54-.69,6.26-2.22,1.2-1.22,1.87-2.86,1.88-4.57,.06-1.11-.34-2.19-1.1-3-.81-.84-2.16-1.34-4.29-1.34h-1.75l-3,11.14h2Z"/><path id="Path_889" class="cls-1" d="M6.67,56.86h6.14l-4.47,16.7h10.52l-1.45,5.35H.75l5.92-22.05Z"/><path id="Path_890" class="cls-1" d="M26.27,56.86h6.11l-5.92,22.05h-6.11l5.92-22.05Z"/><path id="Path_891" class="cls-1" d="M32.38,69.62c0-7.03,5.73-13.2,14.14-13.2,4.41,0,7.62,1.8,9.14,3.75l-4.1,3.97c-1.43-1.47-3.4-2.29-5.45-2.27-4.06-.08-7.42,3.15-7.5,7.21,0,.1,0,.19,0,.29,0,3.09,2.24,4.69,4.95,4.69,1.01,.02,2.01-.19,2.93-.6l.88-2.96h-4.25l1.17-4.47h10.11l-3.15,11.12c-2.51,1.45-5.36,2.21-8.25,2.21-5.26,0-10.62-2.96-10.62-9.73"/><path id="Path_892" class="cls-1" d="M60.35,56.86h6.14l-2.24,8.25h7.78l2.21-8.25h6.15l-5.92,22.05h-6.14l2.27-8.38h-7.78l-2.24,8.38h-6.14l5.92-22.05Z"/><path id="Path_893" class="cls-1" d="M87.92,62.22h-6.62l1.45-5.35h19.31l-1.42,5.35h-6.62l-4.47,16.7h-6.14l4.51-16.7Z"/></svg>