<?xml version="1.0" encoding="UTF-8"?><svg id="Layer_1" xmlns="http://www.w3.org/2000/svg" viewBox="0 0 132.33 105.09"><defs><style>.cls-1{fill:#fff;}.cls-2{fill:#8bc440;}</style></defs><path id="Path_140" class="cls-2" d="M36.85,101.51l3.48-3.59c1.58,1.63,3.74,2.58,6.01,2.64,1.28,0,2.2-.56,2.2-1.45,0-.75-.53-1.14-3.26-2.2-3.09-1.17-5.07-2.5-5.07-5.37,0-3.87,3.51-6.62,8.27-6.62,2.94-.11,5.81,.92,7.99,2.9l-3.34,3.73c-1.39-1.32-3.23-2.09-5.15-2.14-1.31,0-2.11,.61-2.11,1.39s.59,1.06,3.26,2.11c3.01,1.14,5.07,2.51,5.07,5.43,0,4.01-3.45,6.74-8.29,6.74-3.38,.14-6.67-1.15-9.05-3.56"/><path id="Path_141" class="cls-2" d="M60.34,85.26h6.37c3.17,0,5.26,.64,6.68,2.06,1.04,1.06,1.59,2.5,1.53,3.98,0,4.84-3.92,7.85-9.69,7.85h-3.2l-1.5,5.59h-5.42l5.23-19.48Zm4.84,9.69c2.67,0,4.2-1.2,4.2-3.03,0-.51-.19-1-.56-1.36-.64-.55-1.47-.82-2.31-.75h-2l-1.36,5.15h2.03Z"/><path id="Path_142" class="cls-2" d="M79.05,85.26h15.61l-1.25,4.59h-10.24l-.81,2.95h9.3l-1.14,4.26h-9.3l-.83,3.09h10.41l-1.22,4.59h-15.76l5.24-19.49Z"/><path id="Path_143" class="cls-2" d="M97.67,85.26h15.61l-1.25,4.59h-10.24l-.81,2.95h9.3l-1.14,4.26h-9.3l-.83,3.09h10.41l-1.22,4.59h-15.75l5.23-19.49Z"/><path id="Path_144" class="cls-2" d="M116.29,85.26h6.29c3.79,0,6.15,1.03,7.63,2.51,1.46,1.53,2.23,3.59,2.11,5.71,.01,2.89-1.14,5.66-3.2,7.68-2.34,2.34-5.71,3.59-10.21,3.59h-7.85l5.23-19.48Zm3.26,14.7c2.04,.09,4.04-.62,5.57-1.98,1.06-1.09,1.66-2.54,1.67-4.06,.06-.99-.3-1.95-.97-2.67-1.05-.91-2.43-1.34-3.81-1.2h-1.56l-2.67,9.91h1.78Z"/><path id="Path_145" class="cls-1" d="M5.39,62.98h5.39l-1.96,7.24h6.82l1.93-7.24h5.39l-5.19,19.34h-5.39l1.99-7.35H7.54l-1.96,7.35H.19l5.19-19.34Z"/><path id="Path_146" class="cls-1" d="M27.85,74.83l-3.9-11.85h5.77l1.91,7.24,5.83-7.24h6.41l-10.8,12.43-1.85,6.91h-5.39l2.02-7.49Z"/><path id="Path_147" class="cls-1" d="M45,62.98h6.33c3.15,0,5.22,.64,6.63,2.04,1.03,1.05,1.58,2.48,1.52,3.95,0,4.81-3.9,7.79-9.61,7.79h-3.18l-1.49,5.55h-5.39l5.19-19.34Zm4.81,9.61c2.65,0,4.17-1.19,4.17-3.01,0-.51-.19-1-.55-1.35-.63-.55-1.46-.82-2.29-.75h-1.99l-1.35,5.11h2.02Z"/><path id="Path_148" class="cls-1" d="M63.57,62.98h15.5l-1.24,4.56h-10.17l-.8,2.93h9.23l-1.13,4.23h-9.23l-.83,3.07h10.33l-1.22,4.56h-15.64l5.19-19.34Z"/><path id="Path_149" class="cls-1" d="M82.05,62.98h7.29c3.23,0,5.36,.72,6.66,2.02,1.01,1.06,1.55,2.49,1.49,3.95,0,3.23-1.85,5.77-5.8,6.85l2.98,6.52h-5.91l-2.57-5.86h-2.38l-1.57,5.86h-5.39l5.2-19.34Zm5.94,9.28c2.4,0,3.98-1.02,3.98-2.68,.01-.48-.17-.95-.5-1.3-.68-.52-1.53-.75-2.38-.66h-2.9l-1.27,4.64h3.07Z"/><path id="Path_150" class="cls-2" d="M65.15,25.87H17.26c-1.08,.06-2.01,.78-2.33,1.81-.27,.68,.06,1.45,.73,1.72,.18,.07,.37,.1,.57,.09l39.68,.09c.73-.04,1.35,.52,1.39,1.25,.01,.19-.02,.39-.09,.57-.32,1.03-1.25,1.75-2.33,1.81l-52.46,.09c-1.08,.06-2.01,.79-2.33,1.82-.27,.68,.06,1.45,.73,1.72,.18,.07,.37,.1,.57,.09l35.62,.09h3.98c.73-.04,1.35,.52,1.39,1.25,.01,.19-.02,.39-.09,.57-.32,1.03-1.25,1.75-2.33,1.81l-16.62,.09c-1.08,.06-2.01,.78-2.33,1.81-.27,.68,.06,1.45,.73,1.72,.18,.07,.37,.1,.57,.09l21.69,.09c.73-.04,1.35,.52,1.39,1.25,.01,.19-.02,.39-.09,.57-.32,1.03-1.25,1.75-2.33,1.81l-38.3,.09c-1.08,.06-2.01,.78-2.33,1.81-.27,.68,.06,1.45,.73,1.72,.18,.07,.37,.1,.57,.09H43.58c5.22-10.11,12.58-18.95,21.58-25.91"/><path id="Path_151" class="cls-1" d="M54.78,48.79c1.7-2.44,3.63-4.72,5.76-6.8l-2.48-5.27c-2.74,2.83-5.2,5.91-7.34,9.22l4.07,2.85Z"/><path id="Path_152" class="cls-1" d="M62.74,39.97c2.54-2.19,5.31-4.1,8.27-5.7l.07-7.86c-3.93,2.34-7.6,5.1-10.93,8.23l2.59,5.32Z"/><path id="Path_153" class="cls-1" d="M73.85,32.86c3.06-1.4,6.29-2.4,9.61-2.99l3.87-10.09c-4.67,1.1-9.18,2.79-13.41,5.04l-.07,8.04Z"/><path id="Path_154" class="cls-1" d="M109.59,40.14c1.88,3.23,2.95,6.87,3.13,10.6l16.14-4.32c-.22-5.54-2-10.9-5.12-15.47l-14.15,9.19Z"/><path id="Path_155" class="cls-1" d="M52.68,51.65l-3.93-2.9c-.56,.96-1.07,1.92-1.56,2.9h5.5Z"/><path id="Path_156" class="cls-1" d="M124.25,67.6c2.66-5.35,4.23-11.18,4.61-17.14l-16.15,3.95c-.22,3.15-.89,6.26-1.97,9.23,4.61,.9,9.13,2.23,13.51,3.96"/><path id="Path_157" class="cls-1" d="M107.74,37.22l13.16-9.31c-4.41-3.85-9.81-6.4-15.58-7.37l-6.72,9.85c3.69,1.09,6.43,3.18,9.14,6.83"/><path id="Path_158" class="cls-2" d="M81.98,33.98c-1.7,.35-3.37,.82-5.01,1.41,0,0-12.53,3.54-21.74,16.86,0,0,11.01-12.6,25.51-14.96l1.24-3.32Z"/><path id="Path_159" class="cls-2" d="M95.56,34.65l-2.38,3.45c1.36,.42,2.69,.95,3.97,1.58,5.19,2.49,9.12,7.02,10.85,12.51,.5,1.51,.74,3.1,.7,4.7,.2-.96,.29-1.94,.29-2.92,.09-8.64-5.3-16.38-13.43-19.31"/><path id="Path_160" class="cls-2" d="M105.28,0l-13.24,8.5,2.15,.95-18.53,49.58L105.34,14.35l2.36,1.04-2.41-15.38Z"/></svg>