<?xml version="1.0" encoding="UTF-8"?><svg id="Layer_1" xmlns="http://www.w3.org/2000/svg" viewBox="0 0 148.27 95.08"><defs><style>.cls-1{fill:#fff;}.cls-2{fill:#8bc440;}</style></defs><path id="Path_806" class="cls-2" d="M74.97,29.84H19.86c-1.24,.07-2.31,.9-2.68,2.09-.31,.78,.06,1.67,.84,1.98,.21,.08,.43,.12,.65,.11l45.65,.1c.84-.04,1.55,.6,1.6,1.44,.01,.22-.02,.44-.11,.65-.37,1.19-1.44,2.02-2.68,2.09l-60.35,.1c-1.24,.07-2.31,.9-2.68,2.09-.31,.78,.06,1.67,.84,1.98,.21,.08,.43,.12,.65,.11l40.98,.1h4.58c.84-.04,1.55,.6,1.6,1.44,.01,.22-.02,.44-.11,.65-.37,1.19-1.44,2.02-2.68,2.09l-19.12,.1c-1.24,.07-2.31,.9-2.68,2.09-.31,.78,.06,1.67,.84,1.98,.21,.08,.43,.12,.65,.11l24.95,.1c.84-.04,1.55,.6,1.6,1.44,.01,.22-.02,.44-.11,.65-.37,1.19-1.44,2.02-2.68,2.09l-44.06,.1c-1.24,.07-2.31,.9-2.68,2.09-.31,.78,.06,1.67,.84,1.98,.21,.08,.43,.12,.65,.11H50.13c6.01-11.63,14.49-21.8,24.84-29.81"/><path id="Path_807" class="cls-1" d="M6.54,72.78h6.12l2.9,8.46,7.43-8.46h6.81l-5.87,21.86h-6.09l3.34-12.56-7.84,8.56h-.12l-3.22-8.49-3.34,12.49H.66l5.88-21.86Z"/><path id="Path_808" class="cls-1" d="M40.99,72.62h5.93l3.4,22.02h-6.37l-.53-3.9h-8.43l-2.62,3.9h-6.59l15.21-22.02Zm1.94,13.4l-.78-6.28-4.09,6.28h4.87Z"/><path id="Path_809" class="cls-1" d="M52.17,85.52c.11-7.39,6.18-13.29,13.57-13.18h.08c4.47,0,7.56,2.16,8.87,5.53l-5.25,2.81c-.73-1.77-2.49-2.89-4.4-2.81-3.62,0-6.53,3.4-6.53,7.21-.17,2.31,1.57,4.33,3.89,4.49,.16,.01,.32,.01,.49,0,1.81-.03,3.51-.84,4.68-2.22l4.09,3.62c-2.27,2.68-5.64,4.18-9.15,4.09-6.06,0-10.34-3.72-10.34-9.56"/><path id="Path_810" class="cls-1" d="M78.77,72.78h6.09l-2.22,8.18h7.71l2.19-8.18h6.09l-5.87,21.86h-6.09l2.25-8.31h-7.71l-2.22,8.31h-6.09l5.87-21.86Z"/><path id="Path_811" class="cls-2" d="M112.5,78.49l-3.65,.87-.12-4.9,6.93-1.84h4.4l-5.9,22.02h-5.96l4.31-16.15Z"/><path id="Path_812" class="cls-2" d="M77.84,0l-3.77,17.71,2.52-.99,25.54,55.29-12.51-60.44,2.76-1.09L77.84,0Z"/><path id="Path_813" class="cls-1" d="M126.09,46.27c2.16,3.72,3.39,7.9,3.61,12.19l18.57-4.97c-.25-6.37-2.3-12.54-5.9-17.81l-16.28,10.58Z"/><path id="Path_814" class="cls-1" d="M142.96,77.87c3.06-6.16,4.86-12.86,5.31-19.72l-18.58,4.55c-.26,3.63-1.02,7.2-2.27,10.62,5.31,1.04,10.51,2.57,15.54,4.56"/><path id="Path_815" class="cls-1" d="M63.03,56.22c1.96-2.81,4.17-5.44,6.63-7.83l-2.86-6.07c-3.15,3.25-5.98,6.81-8.45,10.61l4.68,3.29Z"/><path id="Path_816" class="cls-1" d="M60.61,59.51l-4.53-3.33c-.64,1.1-1.23,2.21-1.8,3.33h6.33Z"/><path id="Path_817" class="cls-1" d="M79.69,31.33c-3.51,2.47-6.82,5.22-9.88,8.24l2.85,5.86c.59-.56,1.22-1.08,1.89-1.55,.66-.52,1.34-1.02,2.02-1.5,2.05-1.43,4.2-2.74,6.42-3.9l-3.3-7.14Z"/><path id="Path_818" class="cls-1" d="M122.38,20.84l-7.55,15.19c3.42,1.41,6.43,3.67,8.74,6.56l15.65-11.35c-4.36-5.18-10.26-8.82-16.84-10.41"/><path id="Path_819" class="cls-1" d="M117.53,20.06c-5.88-.51-12.85,.35-21.09,3.36,.72,3.47,1.68,8.17,2.23,11.13,3.92-.63,7.92-.57,11.82,.16l7.03-14.65Z"/><path id="Path_820" class="cls-2" d="M84.81,42.25c-8.57,3.96-15.92,10.17-21.26,17.96,0,0,9.31-10.65,22.47-15.4l-1.21-2.55Z"/><path id="Path_821" class="cls-2" d="M108.3,39.43c-2.88-.78-5.87-1.09-8.85-.91l.83,4.12c4,.28,7.91,1.33,11.51,3.11,5.97,2.87,10.49,8.08,12.48,14.39,.58,1.74,.85,3.57,.8,5.4,.22-1.11,.33-2.23,.33-3.36,.11-10.58-6.91-19.92-17.11-22.74"/></svg>