<?xml version="1.0" encoding="UTF-8"?><svg id="Layer_1" xmlns="http://www.w3.org/2000/svg" viewBox="0 0 171.37 108.74"><defs><style>.cls-1{fill:#fff;}.cls-2{fill:#8bc440;}</style></defs><path class="cls-2" d="M54.56,33.98l-32.52,10.95c-.68,.23-1.09,1.37-.9,2.54s.88,1.94,1.56,1.71l26.97-8.98c.68-.23,1.38,.54,1.56,1.71s-.23,2.31-.9,2.54L14.75,56.57c-.68,.23-1.09,1.37-.9,2.54s.88,1.94,1.56,1.71l24.22-8.05,2.7-.91c.68-.23,1.38,.54,1.56,1.71s-.23,2.31-.9,2.54l-11.25,3.9c-.68,.23-1.09,1.37-.9,2.54s.88,1.94,1.56,1.71l14.76-4.86c.68-.23,1.38,.54,1.56,1.71s-.23,2.31-.9,2.54l-25.97,8.86c-.68,.23-1.09,1.37-.9,2.54s.88,1.94,1.56,1.71l41.77-14.08c-4.01-11.81-6.86-20.45-9.68-28.72m7.51-22.4l9.06,11.22-10.53,5.51c-2.75,1.44-4.05,4.67-3.07,7.62l8.14,24.27c.99,2.95,3.97,4.74,7.03,4.24l11.73-1.93-.46,14.44c-.08,2.45,1.84,4.5,4.29,4.58,.53,.02,1.06-.06,1.56-.23l10.71-3.59c8.02-2.67,11.35-9.37,12.73-14.02,.96-3.13,3.25-5.68,6.25-6.99,26.09-11.54,35.29-31.23,37.82-38.35,.57-1.58-.02-3.35-1.43-4.26-6.31-4.14-25.52-14.32-53.3-7.78-3.16,.77-6.5,.11-9.13-1.81-3.86-2.88-10.54-6.22-18.65-3.52l-10.7,3.59c-2.32,.78-3.58,3.29-2.8,5.62,.17,.5,.42,.97,.76,1.38m49.8,8.61c5.48-1.84,11.41,1.1,13.26,6.58,1.84,5.48-1.1,11.41-6.58,13.26-5.48,1.84-11.41-1.1-13.26-6.58-1.84-5.48,1.11-11.41,6.58-13.26"/><path class="cls-1" d="M5.25,88.79h5.45l-3.97,14.81h9.34l-1.29,4.75H0l5.25-19.56Zm12.58,13.08c.02-1.06,.17-2.11,.45-3.13l2.68-9.95h5.48l-2.77,10.34c-.18,.6-.27,1.22-.28,1.84,0,1.76,1.09,2.85,3.05,2.85,.98,.02,1.93-.35,2.63-1.03,.84-.91,1.41-2.03,1.65-3.24l2.91-10.76h5.48l-3.1,11.57c-.48,2.18-1.53,4.2-3.05,5.84-1.73,1.73-4.19,2.52-7.21,2.52-5.03,0-7.91-2.54-7.91-6.85m24.5-13.08h6.32c3.8,0,6.18,1.03,7.66,2.52,1.47,1.54,2.24,3.61,2.12,5.73,.01,2.9-1.14,5.68-3.21,7.71-2.35,2.35-5.73,3.6-10.26,3.6h-7.88l5.25-19.56Zm3.27,14.76c2.05,.09,4.06-.62,5.59-1.98,1.07-1.09,1.67-2.55,1.68-4.08,.06-.99-.3-1.96-.98-2.68-1.06-.91-2.44-1.34-3.83-1.2h-1.57l-2.68,9.95h1.79Zm18.14-14.76h5.42l-5.25,19.56h-5.42l5.25-19.56Zm5.45,11.4c.1-6.61,5.53-11.89,12.15-11.79h.07c4,0,6.76,1.93,7.94,4.95l-4.7,2.52c-.66-1.58-2.23-2.59-3.94-2.52-3.24,0-5.84,3.05-5.84,6.46-.15,2.07,1.41,3.87,3.47,4.02,.15,.01,.29,.01,.44,0,1.62-.03,3.14-.75,4.19-1.98l3.66,3.24c-2.03,2.4-5.05,3.74-8.19,3.66-5.42,0-9.25-3.33-9.25-8.55m23.81-11.4h7.38c3.27,0,5.42,.73,6.73,2.04,1.02,1.07,1.57,2.52,1.51,4,0,3.27-1.87,5.84-5.87,6.93l3.02,6.6h-5.98l-2.6-5.93h-2.4l-1.59,5.93h-5.45l5.25-19.57Zm6.01,9.39c2.43,0,4.02-1.03,4.02-2.71,.01-.49-.17-.96-.5-1.31-.69-.52-1.54-.76-2.4-.67h-2.93l-1.29,4.7h3.1Zm10.78,1.76c.06-6.39,5.26-11.54,11.65-11.51,5.56,0,9.33,3.8,9.33,8.78-.06,6.39-5.26,11.54-11.65,11.51-5.56,0-9.33-3.8-9.33-8.78m15.45-2.32c.18-2.21-1.47-4.15-3.68-4.33-.2-.02-.39-.02-.59,0-3.41,0-5.65,3.33-5.65,6.23-.18,2.21,1.47,4.15,3.68,4.33,.2,.02,.39,.02,.59,0,3.44,0,5.65-3.33,5.65-6.23m7.47,4.25c.02-1.06,.17-2.11,.45-3.13l2.68-9.95h5.48l-2.77,10.34c-.18,.6-.27,1.22-.28,1.84,0,1.76,1.09,2.85,3.05,2.85,.98,.02,1.93-.35,2.63-1.03,.84-.91,1.41-2.03,1.65-3.24l2.91-10.76h5.48l-3.1,11.57c-.48,2.18-1.54,4.2-3.05,5.84-1.73,1.73-4.19,2.52-7.21,2.52-5.03,0-7.91-2.54-7.91-6.85m18.95,3.24l3.49-3.6c1.59,1.64,3.76,2.59,6.04,2.66,1.28,0,2.21-.56,2.21-1.45,0-.75-.53-1.15-3.27-2.21-3.1-1.17-5.09-2.52-5.09-5.39,0-3.89,3.52-6.65,8.3-6.65,2.95-.12,5.83,.93,8.02,2.91l-3.35,3.74c-1.4-1.33-3.24-2.1-5.17-2.15-1.31,0-2.12,.61-2.12,1.4s.59,1.06,3.27,2.12c3.02,1.15,5.09,2.52,5.09,5.45,0,4.02-3.47,6.76-8.33,6.76-3.4,.14-6.69-1.16-9.08-3.58"/></svg>