<?xml version="1.0" encoding="UTF-8"?><svg id="Layer_1" xmlns="http://www.w3.org/2000/svg" viewBox="0 0 630.91 223.71"><defs><style>.cls-1{fill:#092349;}.cls-2{fill:#79b62e;}</style></defs><path id="Path_1" class="cls-2" d="M407.2,111.85c0-61.78,50.08-111.85,111.85-111.85s111.85,50.08,111.85,111.85-50.08,111.85-111.85,111.85h0c-61.78,0-111.85-50.08-111.85-111.85h0"/><path id="Path_2" class="cls-2" d="M159.8,38.44c0-11.03,8.94-19.98,19.98-19.98s19.98,8.94,19.98,19.98-8.94,19.98-19.98,19.98c-11.03,0-19.98-8.94-19.98-19.98h0"/><path id="Path_3" class="cls-1" d="M501.47,98.38v23.99h15.29c5.39-.34,10.71,1.31,14.96,4.64,3.85,3.9,5.79,9.31,5.3,14.77,.07,4.64-1.99,9.06-5.59,12-4.01,3.32-9.09,5.04-14.29,4.83-4.42,.16-8.73-1.46-11.95-4.5-3.09-2.92-4.8-7.03-4.68-11.28h-31.45l-.19,.58c-.93,11.72,4.42,23.05,14.05,29.78,10.03,6.96,22.01,10.55,34.22,10.28,15.17,0,27.64-3.65,37.42-10.95,9.61-6.94,15.11-18.22,14.67-30.06,.22-7.2-1.93-14.27-6.12-20.12-4.43-5.77-10.49-10.08-17.4-12.38,6.19-2.76,11.56-7.07,15.58-12.52,3.74-5.03,5.75-11.13,5.73-17.4,.58-11.44-4.52-22.44-13.62-29.39-9.08-6.91-21.17-10.37-36.27-10.37-11.88-.35-23.54,3.28-33.12,10.32-8.71,6.12-13.65,16.31-13.05,26.95l.19,.57h31.35c-.12-3.63,1.45-7.1,4.26-9.41,2.91-2.41,6.59-3.69,10.37-3.59,4.73-.25,9.37,1.39,12.9,4.54,3.1,2.83,4.84,6.85,4.78,11.04,.28,4.79-1.41,9.49-4.68,13-3.64,3.32-8.47,5.01-13.38,4.68l-15.3,.02Z"/><path id="Path_4" class="cls-1" d="M349.5,97.44c2.28,3.97,3.34,8.52,3.04,13.09v2.68h-30.09l-.21-.52c.11-5.14,1.71-10.13,4.6-14.38,2.98-3.69,7.58-5.68,12.31-5.31,3.98-.4,7.9,1.27,10.36,4.43m16.54,80.89c6.91-1.85,13.47-4.85,19.39-8.87l-8.35-21.23c-4.92,2.14-10.01,3.9-15.2,5.26-5.46,1.21-11.05,1.76-16.64,1.64-5.93,.4-11.77-1.54-16.28-5.41-3.85-3.75-6.16-8.8-6.49-14.17l.21-.62h63.89v-18.24c0-15.67-4.14-28-12.42-37s-19.94-13.5-34.99-13.5c-17.11-.07-30.18,5.26-39.21,15.97-9.03,10.72-13.55,24.59-13.55,41.63v3.92c-.51,14.33,4.65,28.29,14.35,38.85,9.58,10.24,22.83,15.36,39.72,15.36,8.65,.04,17.26-1.18,25.56-3.61m-82.54-110.87c-1.29-.39-2.59-.7-3.92-.93-1.4-.22-2.81-.32-4.22-.31-4.94-.07-9.73,1.65-13.5,4.84-4.17,3.7-7.36,8.37-9.27,13.6l-1.24-16.38h-32.77v111.5h34.83V106.3c1.18-2.63,3.17-4.81,5.67-6.24,3.01-1.59,6.39-2.35,9.79-2.21l11.34,.1,3.3-30.49Zm-86.25,.82h-34.94v111.5h34.93V68.28Zm-112.12,0h-21.95l-18.24,62.76h-.62l-11.12-62.76H0l26.29,111.5h29.37l18.24-57.09h.62l18.14,57.09h29.47l26.18-111.5h-33.19l-11.03,62.35h-.62l-18.34-62.34Z"/></svg>